<svg width="24" height="25" viewBox="0 0 24 25" fill="none" xmlns="http://www.w3.org/2000/svg">
<path fill-rule="evenodd" clip-rule="evenodd" d="M12 3.85132C9.5556 3.85132 9.2496 3.86152 8.2896 3.90532C7.3314 3.94912 6.6768 4.10152 6.1044 4.32412C5.5044 4.54972 4.9602 4.90372 4.5102 5.36212C4.05253 5.8116 3.69831 6.35542 3.4722 6.95572C3.2508 7.52812 3.0978 8.18332 3.054 9.14152C3.0108 10.1009 3 10.4063 3 12.8513C3 15.2963 3.0102 15.6017 3.054 16.5617C3.0978 17.5199 3.2502 18.1745 3.4728 18.7469C3.6984 19.3469 4.0524 19.8911 4.5108 20.3411C4.96029 20.7988 5.50411 21.153 6.1044 21.3791C6.6768 21.6011 7.3314 21.7535 8.2896 21.7973C9.2496 21.8411 9.5556 21.8513 12 21.8513C14.4444 21.8513 14.7504 21.8411 15.7104 21.7973C16.6686 21.7535 17.3232 21.6011 17.8956 21.3785C18.4956 21.1529 19.0398 20.7989 19.4898 20.3405C19.9475 19.891 20.3017 19.3472 20.5278 18.7469C20.7498 18.1745 20.9022 17.5199 20.946 16.5617C20.9898 15.6017 21 15.2957 21 12.8513C21 10.4069 20.9898 10.1009 20.946 9.14092C20.9022 8.18272 20.7498 7.52812 20.5272 6.95572C20.3012 6.35516 19.947 5.81111 19.4892 5.36152C19.0397 4.90385 18.4959 4.54963 17.8956 4.32352C17.3232 4.10212 16.668 3.94912 15.7098 3.90532C14.7504 3.86212 14.445 3.85132 12 3.85132ZM12 5.47312C14.403 5.47312 14.688 5.48212 15.6372 5.52532C16.5144 5.56552 16.9908 5.71132 17.3082 5.83552C17.7282 5.99812 18.0282 6.19372 18.3432 6.50812C18.6582 6.82312 18.8532 7.12312 19.0158 7.54312C19.1394 7.86052 19.2858 8.33692 19.326 9.21412C19.3692 10.1633 19.3782 10.4483 19.3782 12.8513C19.3782 15.2543 19.3692 15.5393 19.326 16.4885C19.2858 17.3657 19.14 17.8421 19.0158 18.1595C18.8718 18.5504 18.6419 18.9041 18.3432 19.1945C18.0528 19.4933 17.6992 19.7232 17.3082 19.8671C16.9908 19.9907 16.5144 20.1371 15.6372 20.1773C14.688 20.2205 14.4036 20.2295 12 20.2295C9.5964 20.2295 9.312 20.2205 8.3628 20.1773C7.4856 20.1371 7.0092 19.9913 6.6918 19.8671C6.30087 19.7231 5.9472 19.4932 5.6568 19.1945C5.35811 18.9041 5.12828 18.5504 4.9842 18.1595C4.8606 17.8421 4.7142 17.3657 4.674 16.4885C4.6308 15.5393 4.6218 15.2543 4.6218 12.8513C4.6218 10.4483 4.6308 10.1633 4.674 9.21412C4.7142 8.33692 4.86 7.86052 4.9842 7.54312C5.1468 7.12312 5.3424 6.82312 5.6568 6.50812C5.94716 6.20935 6.30085 5.9795 6.6918 5.83552C7.0092 5.71192 7.4856 5.56552 8.3628 5.52532C9.312 5.48212 9.597 5.47312 12 5.47312Z" fill="#F8F9F5"/>
<path fill-rule="evenodd" clip-rule="evenodd" d="M12 15.8543C11.6057 15.8543 11.2152 15.7766 10.8508 15.6257C10.4865 15.4748 10.1554 15.2536 9.87658 14.9747C9.59773 14.6959 9.37653 14.3648 9.22561 14.0005C9.0747 13.6361 8.99702 13.2457 8.99702 12.8513C8.99702 12.4569 9.0747 12.0664 9.22561 11.7021C9.37653 11.3378 9.59773 11.0067 9.87658 10.7278C10.1554 10.449 10.4865 10.2278 10.8508 10.0769C11.2152 9.92597 11.6057 9.84829 12 9.84829C12.7965 9.84829 13.5603 10.1647 14.1235 10.7278C14.6866 11.291 15.003 12.0548 15.003 12.8513C15.003 13.6477 14.6866 14.4116 14.1235 14.9747C13.5603 15.5379 12.7965 15.8543 12 15.8543ZM12 8.22529C10.7731 8.22529 9.59649 8.71267 8.72895 9.58021C7.8614 10.4478 7.37402 11.6244 7.37402 12.8513C7.37402 14.0782 7.8614 15.2548 8.72895 16.1224C9.59649 16.9899 10.7731 17.4773 12 17.4773C13.2269 17.4773 14.4036 16.9899 15.2711 16.1224C16.1386 15.2548 16.626 14.0782 16.626 12.8513C16.626 11.6244 16.1386 10.4478 15.2711 9.58021C14.4036 8.71267 13.2269 8.22529 12 8.22529ZM17.9718 8.14129C17.9718 8.4313 17.8566 8.70944 17.6515 8.91451C17.4465 9.11958 17.1683 9.23479 16.8783 9.23479C16.5883 9.23479 16.3102 9.11958 16.1051 8.91451C15.9 8.70944 15.7848 8.4313 15.7848 8.14129C15.7848 7.85128 15.9 7.57314 16.1051 7.36807C16.3102 7.163 16.5883 7.04779 16.8783 7.04779C17.1683 7.04779 17.4465 7.163 17.6515 7.36807C17.8566 7.57314 17.9718 7.85128 17.9718 8.14129Z" fill="#F8F9F5"/>
</svg>
