<svg width="24" height="25" viewBox="0 0 24 25" fill="none" xmlns="http://www.w3.org/2000/svg">
<path d="M21 5.17485V20.5278C21 20.8788 20.8606 21.2155 20.6123 21.4637C20.3641 21.7119 20.0275 21.8513 19.6765 21.8513H4.32353C3.97251 21.8513 3.63586 21.7119 3.38765 21.4637C3.13944 21.2155 3 20.8788 3 20.5278V5.17485C3 4.82383 3.13944 4.48718 3.38765 4.23897C3.63586 3.99076 3.97251 3.85132 4.32353 3.85132H19.6765C20.0275 3.85132 20.3641 3.99076 20.6123 4.23897C20.8606 4.48718 21 4.82383 21 5.17485ZM8.29412 10.7337H5.64706V19.2043H8.29412V10.7337ZM8.53235 7.82191C8.53375 7.62168 8.49569 7.42314 8.42035 7.23762C8.34502 7.0521 8.23387 6.88323 8.09328 6.74066C7.95268 6.5981 7.78537 6.48462 7.60091 6.40672C7.41646 6.32881 7.21846 6.288 7.01824 6.28661H6.97059C6.5634 6.28661 6.17289 6.44837 5.88497 6.73629C5.59705 7.02421 5.43529 7.41472 5.43529 7.82191C5.43529 8.22909 5.59705 8.6196 5.88497 8.90752C6.17289 9.19545 6.5634 9.3572 6.97059 9.3572C7.17083 9.36213 7.37008 9.32755 7.55696 9.25544C7.74383 9.18334 7.91467 9.07512 8.0597 8.93696C8.20474 8.79881 8.32113 8.63344 8.40223 8.45029C8.48333 8.26713 8.52755 8.0698 8.53235 7.86955V7.82191ZM18.3529 14.0584C18.3529 11.5119 16.7329 10.5219 15.1235 10.5219C14.5966 10.4955 14.0719 10.6078 13.6019 10.8474C13.1318 11.0871 12.7328 11.4458 12.4447 11.8878H12.3706V10.7337H9.88235V19.2043H12.5294V14.699C12.4911 14.2375 12.6365 13.7797 12.9339 13.4248C13.2313 13.0699 13.6567 12.8467 14.1176 12.8037H14.2182C15.06 12.8037 15.6847 13.3331 15.6847 14.6672V19.2043H18.3318L18.3529 14.0584Z" fill="#F8F9F5"/>
</svg>
