<svg width="24" height="25" viewBox="0 0 24 25" fill="none" xmlns="http://www.w3.org/2000/svg">
<path d="M19.9525 8.77142C19.9647 8.94774 19.9647 9.12405 19.9647 9.30199C19.9647 14.7239 15.8371 20.977 8.28966 20.977V20.9737C6.06013 20.977 3.8769 20.3384 2 19.1342C2.32419 19.1732 2.65001 19.1927 2.97664 19.1935C4.82429 19.1951 6.61913 18.5752 8.07272 17.4336C6.31688 17.4003 4.77717 16.2555 4.23928 14.5841C4.85436 14.7028 5.48812 14.6784 6.09181 14.5134C4.17753 14.1267 2.80033 12.4448 2.80033 10.4915C2.80033 10.4736 2.80033 10.4566 2.80033 10.4395C3.37071 10.7572 4.00934 10.9335 4.6626 10.953C2.85964 9.74806 2.30388 7.34952 3.39265 5.47425C5.47593 8.03772 8.54966 9.59612 11.8493 9.76106C11.5186 8.33591 11.9703 6.84252 13.0364 5.84069C14.689 4.28716 17.2882 4.36679 18.8418 6.01863C19.7607 5.83744 20.6415 5.50025 21.4475 5.02249C21.1412 5.97232 20.5001 6.77914 19.6437 7.29184C20.457 7.19596 21.2517 6.97821 22 6.64589C21.4491 7.4714 20.7552 8.19048 19.9525 8.77142Z" fill="#F8F9F5"/>
</svg>
