<svg width="24" height="25" viewBox="0 0 24 25" fill="none" xmlns="http://www.w3.org/2000/svg">
<path fill-rule="evenodd" clip-rule="evenodd" d="M19.792 6.26603C20.6521 6.49709 21.3325 7.17746 21.5635 8.03753C21.9872 9.60364 22 12.8514 22 12.8514C22 12.8514 22 16.112 21.5764 17.6653C21.3453 18.5253 20.665 19.2057 19.8049 19.4368C18.2516 19.8604 12 19.8604 12 19.8604C12 19.8604 5.74839 19.8604 4.19512 19.4368C3.33504 19.2057 2.65469 18.5253 2.42362 17.6653C2 16.0991 2 12.8514 2 12.8514C2 12.8514 2 9.60364 2.41078 8.05037C2.64185 7.19029 3.32221 6.50993 4.18229 6.27887C5.73556 5.85524 11.9872 5.84241 11.9872 5.84241C11.9872 5.84241 18.2388 5.84241 19.792 6.26603ZM15.1836 12.8514L9.99743 15.8552V9.84754L15.1836 12.8514Z" fill="#F8F9F5"/>
</svg>
